# Blender v2.79 (sub 0) OBJ File: 'SignPost.blend'
# www.blender.org
mtllib SignPost.mtl
o Cube
v -0.484072 0.481593 -0.613733
v -0.486760 0.481593 -0.265594
v 0.560346 0.481593 -0.605668
v 0.557658 0.481593 -0.257529
v -0.484072 1.316576 -0.613733
v -0.486760 1.316576 -0.265594
v 0.560346 1.316576 -0.605668
v 0.557658 1.316576 -0.257529
v -0.298957 0.629969 -0.550436
v -0.300690 0.629969 -0.326025
v -0.074546 0.629969 -0.548703
v 0.149865 0.629969 -0.546970
v -0.076279 0.629969 -0.324292
v 0.148132 0.629969 -0.322559
v -0.074546 -0.043285 -0.548703
v 0.149865 -0.043285 -0.546970
v -0.076279 -0.043285 -0.324292
v 0.148132 -0.043285 -0.322559
vn 1.0000 0.0000 0.0077
vn -1.0000 0.0000 -0.0077
vn 0.0000 1.0000 0.0000
vn 0.6244 -0.7811 0.0048
vn -0.3403 -0.9403 -0.0026
vn 0.3403 -0.9403 0.0026
vn -0.0077 -0.0422 0.9991
vn 0.0000 -1.0000 -0.0000
vn 0.0077 -0.0422 -0.9991
usemtl Material
s off
f 4//1 3//1 7//1 8//1
f 1//2 2//2 6//2 5//2
f 6//3 8//3 7//3 5//3
f 2//4 1//4 9//4 10//4
f 14//5 12//5 3//5 4//5
f 2//6 1//6 11//6 13//6
f 14//7 4//7 8//7 6//7 2//7 13//7 17//7 18//7
f 17//8 15//8 16//8 18//8
f 13//2 11//2 15//2 17//2
f 12//1 14//1 18//1 16//1
f 11//9 1//9 5//9 7//9 3//9 12//9 16//9 15//9
